<?xml version="1.0" encoding="UTF-8" standalone="no"?>
<svg width="127px" height="56px" viewBox="0 0 127 56" version="1.1" xmlns="http://www.w3.org/2000/svg" xmlns:xlink="http://www.w3.org/1999/xlink">
    <!-- Generator: Sketch 42 (36781) - http://www.bohemiancoding.com/sketch -->
    <title>Group 3 Copy 11</title>
    <desc>Created with Sketch.</desc>
    <defs>
        <filter x="-50%" y="-50%" width="200%" height="200%" filterUnits="objectBoundingBox" id="filter-1">
            <feOffset dx="0" dy="1" in="SourceAlpha" result="shadowOffsetOuter1"></feOffset>
            <feGaussianBlur stdDeviation="2" in="shadowOffsetOuter1" result="shadowBlurOuter1"></feGaussianBlur>
            <feColorMatrix values="0 0 0 0 0   0 0 0 0 0   0 0 0 0 0  0 0 0 0.16 0" type="matrix" in="shadowBlurOuter1" result="shadowMatrixOuter1"></feColorMatrix>
            <feMerge>
                <feMergeNode in="shadowMatrixOuter1"></feMergeNode>
                <feMergeNode in="SourceGraphic"></feMergeNode>
            </feMerge>
        </filter>
    </defs>
    <g id="Page-1" stroke="none" stroke-width="1" fill="none" fill-rule="evenodd">
        <g id="Group-3-Copy-11" filter="url(#filter-1)" transform="translate(4.000000, 2.000000)">
            <g id="Group-2" transform="translate(0.864078, 0.000000)">
                <g id="Group-3-Copy" transform="translate(59.028767, 25.258462) rotate(-270.000000) translate(-59.028767, -25.258462) translate(34.528767, -33.741538)">
                    <g id="Group" transform="translate(24.260908, 94.000000) rotate(-90.000000) translate(-24.260908, -94.000000) translate(0.260908, 70.000000)">
                        <polygon id="Path-187-Copy" fill="#FFF6F6" opacity="0.754139459" transform="translate(23.744202, 23.797206) scale(-1, 1) rotate(-180.000000) translate(-23.744202, -23.797206) " points="-2.98427949e-13 47.5944118 -2.95517574e-13 2.0639046e-13 47.488404 47.5944112"></polygon>
                        <polygon id="Path-2" fill="#C36262" opacity="0.202716884" transform="translate(13.178462, 11.964341) scale(-1, 1) rotate(-90.000000) translate(-13.178462, -11.964341) " points="25.1115154 25.0867225 3.82915262 -1.15804102 1.24540879 1.45528264"></polygon>
                        <polygon id="Path-187-Copy-2" fill="#FFFFFF" points="-3.499534e-12 47.5944118 -3.49662362e-12 3.73479025e-13 47.488404 47.5944112"></polygon>
                    </g>
                    <g id="Group" transform="translate(24.260908, 24.000000) rotate(-90.000000) translate(-24.260908, -24.000000) translate(0.260908, 0.000000)">
                        <polygon id="Path-187-Copy" fill="#FFF6F6" opacity="0.754139459" transform="translate(23.744202, 23.797206) scale(-1, 1) translate(-23.744202, -23.797206) " points="4.12114787e-13 47.5944118 4.15025161e-13 -1.96509475e-13 47.488404 47.5944112"></polygon>
                        <polygon id="Path-2" fill="#C36262" opacity="0.20364972" points="47.4890642 47.579465 26.2067014 21.3347015 23.6229576 23.9480251"></polygon>
                        <polygon id="Path-187-Copy-2" fill="#FFFFFF" points="-3.49964502e-12 47.5944118 -3.49673464e-12 3.71147557e-13 47.488404 47.5944112"></polygon>
                    </g>
                </g>
            </g>
        </g>
    </g>
</svg>