<?xml version="1.0" encoding="UTF-8" standalone="no"?>
<svg width="118px" height="48px" viewBox="0 0 118 48" version="1.1" xmlns="http://www.w3.org/2000/svg" xmlns:xlink="http://www.w3.org/1999/xlink">
    <!-- Generator: Sketch 42 (36781) - http://www.bohemiancoding.com/sketch -->
    <title>Group 3 Copy 10</title>
    <desc>Created with Sketch.</desc>
    <defs></defs>
    <g id="Page-1" stroke="none" stroke-width="1" fill="none" fill-rule="evenodd">
        <g id="Group-3-Copy-10" transform="translate(-2.000000, -1.000000)">
            <g id="Group-2" transform="translate(0.858605, 0.000000)">
                <g id="Group-3-Copy" transform="translate(60.429915, 25.416959) rotate(-270.000000) translate(-60.429915, -25.416959) translate(35.929915, -34.583041)">
                    <g id="Group" transform="translate(24.107178, 95.198819) rotate(-90.000000) translate(-24.107178, -95.198819) translate(-0.392822, 71.198819)">
                        <polygon id="Path-187-Copy" fill="#747474" opacity="0.554221082" transform="translate(24.518053, 11.914844) scale(-1, 1) rotate(-180.000000) translate(-24.518053, -11.914844) " points="0.924242424 23.8296877 24.5180527 -7.49122986e-13 48.111863 23.829687"></polygon>
                        <polygon id="Path-2" fill="#444444" opacity="0.395988806" transform="translate(13.990669, 11.961713) scale(-1, 1) rotate(-90.000000) translate(-13.990669, -11.961713) " points="25.8455156 25.0555052 4.72048405 -1.13207829 2.13582297 1.41573605"></polygon>
                        <polygon id="Path-187-Copy-2" fill="#444444" points="0.924242424 47.5944118 0.924242424 -3.54272167e-13 48.111863 47.5944112"></polygon>
                    </g>
                    <g id="Group" transform="translate(24.107178, 24.773735) rotate(-90.000000) translate(-24.107178, -24.773735) translate(0.107178, 0.773735)">
                        <polygon id="Path-187-Copy" fill="#747474" opacity="0.554221082" transform="translate(35.396878, 23.797206) scale(-1, 1) translate(-35.396878, -23.797206) " points="23.6061355 47.5944118 23.6061355 1.16939791e-12 47.1876205 23.831222"></polygon>
                        <polygon id="Path-2" fill="#444444" opacity="0.395988806" points="47.1882765 47.579465 26.0616175 21.352903 23.6086312 23.8381868"></polygon>
                        <polygon id="Path-187-Copy-2" fill="#444444" points="-3.61310981e-12 47.5944118 -3.61021787e-12 3.66151554e-13 47.1876205 47.5944112"></polygon>
                    </g>
                </g>
            </g>
        </g>
    </g>
</svg>